<svg id="Layer_3" data-name="Layer 3" xmlns="http://www.w3.org/2000/svg" viewBox="0 0 1848 899.34"><defs><style>.cls-1,.cls-2{fill:none;stroke:#0057d6;stroke-miterlimit:10;}.cls-1{stroke-width:100px;}.cls-2{stroke-width:80px;}</style></defs><path class="cls-1" d="M297.73,106.38a36.27,36.27,0,0,0-8,1.83c-8.82,3.17-17,11.58-24.32,22.26-6.6,9.69-12.07,22.53-15.55,37.79-5.75,25.2-4.8,54.13-4.8,81.29V505.09c0,37.21.25,74.46,0,111.67-.15,22.11,2.94,44.71,10.61,60.62,19,39.45,46.25,36.57,70.9,36.57H630.4c15.46,0,32.59-15.6,43.06-38.88Q686,647.11,686,609.3V231.44c0-3.89,0-7.77,0-11.65.14-30.24-6.48-62.66-16.65-83.79-5.17-10.73-11.41-19.73-18.24-25.16-7.23-5.75-14.55-4.65-22.15-4.65H316.15C310,106.19,303.86,105.65,297.73,106.38Z" transform="translate(-13 -48.24)"/><path class="cls-1" d="M734.38,106.72c40.17.39,72.77,30.4,96.44,71.49,11.72,20.34,24.61,41.71,30.45,66.48,6.19,26.22,6.19,54.73,5.32,81.91-.94,29.72-.16,59.44-.16,89.25v281.5c0,41.55,2.85,76.35-17.15,111.5a167.24,167.24,0,0,1-42.52,48.74c-18.81,14.76-36.51,30.19-58.3,35.75-20.62,5.26-41.75,3.48-62.62,3.32s-41.83,0-62.74,0H265.45c-36.74,0-73.81,6.85-107.83-17-42.32-29.74-85.81-93.8-92-158.47-2.77-29-.61-58.39-.61-87.55v-124c0-44.7,0-89.47-.39-134.14-.37-42.71-4.15-85.49,1.26-127.94C71,207.5,95.2,177.18,118.15,153.2c24.41-25.51,53.78-45.83,85.46-46.35Z" transform="translate(-13 -48.24)"/><line class="cls-1" x1="261" y1="603.76" x2="88.52" y2="760.5"/><line class="cls-1" x1="648" y1="647.76" x2="824.07" y2="778.88"/><path class="cls-1" d="M1241.73,104.59a36.27,36.27,0,0,0-8,1.83c-8.82,3.18-17,11.58-24.32,22.26-6.6,9.69-12.07,22.53-15.55,37.79-5.75,25.2-4.8,54.13-4.8,81.29V503.3c0,37.21.25,74.46,0,111.67-.15,22.12,2.94,44.71,10.61,60.62,19,39.45,46.25,36.58,70.9,36.58H1574.4c15.46,0,32.59-15.61,43.06-38.89Q1630,645.34,1630,607.51V229.65c0-3.88,0-7.77,0-11.65.14-30.24-6.48-62.66-16.65-83.79-5.17-10.73-11.41-19.73-18.24-25.16-7.23-5.75-14.55-4.64-22.15-4.64H1260.15C1254,104.41,1247.86,103.86,1241.73,104.59Z" transform="translate(-13 -48.24)"/><path class="cls-1" d="M1678.38,104.94c40.17.38,72.77,30.39,96.44,71.48,11.72,20.34,24.61,41.71,30.45,66.48,6.19,26.23,6.19,54.73,5.32,81.91-.94,29.72-.16,59.44-.16,89.25v281.5c0,41.56,2.85,76.35-17.15,111.51a167.2,167.2,0,0,1-42.52,48.73c-18.81,14.77-36.51,30.2-58.3,35.75-20.62,5.26-41.75,3.48-62.62,3.33s-41.83,0-62.74,0H1209.45c-36.74,0-73.81,6.85-107.83-17-42.32-29.74-85.81-93.79-92-158.47-2.77-29.05-.61-58.39-.61-87.55v-124c0-44.71,0-89.48-.39-134.14-.37-42.72-4.15-85.5,1.26-127.95,5.1-40,29.31-70.37,52.26-94.35,24.41-25.51,53.78-45.83,85.46-46.35Z" transform="translate(-13 -48.24)"/><line class="cls-1" x1="1205" y1="601.97" x2="1032.52" y2="758.71"/><line class="cls-1" x1="1592" y1="645.97" x2="1768.07" y2="777.1"/><text x="-13" y="-48.24"/><polyline class="cls-2" points="365 554.76 365 359.15 365 226.11 561 225.76 559 360.72 363 359.15"/><path class="cls-2" d="M1312.57,404.75" transform="translate(-13 -48.24)"/><line class="cls-2" x1="1262" y1="223.76" x2="1531" y2="222.76"/><path class="cls-2" d="M1312.57,600.36" transform="translate(-13 -48.24)"/><line class="cls-2" x1="1396" y1="539.2" x2="1396" y2="222.76"/></svg>